<?xml version="1.0" encoding="UTF-8" standalone="no"?>
<!-- Created with Inkscape (http://www.inkscape.org/) -->

<svg
   width="135.46666mm"
   height="135.46666mm"
   viewBox="0 0 135.46666 135.46666"
   version="1.1"
   id="svg1"
   xml:space="preserve"
   inkscape:version="1.3 (0e150ed6c4, 2023-07-21)"
   sodipodi:docname="back-arrow.svg"
   xmlns:inkscape="http://www.inkscape.org/namespaces/inkscape"
   xmlns:sodipodi="http://sodipodi.sourceforge.net/DTD/sodipodi-0.dtd"
   xmlns="http://www.w3.org/2000/svg"
   xmlns:svg="http://www.w3.org/2000/svg"><sodipodi:namedview
     id="namedview1"
     pagecolor="#ffffff"
     bordercolor="#000000"
     borderopacity="0.25"
     inkscape:showpageshadow="2"
     inkscape:pageopacity="0.0"
     inkscape:pagecheckerboard="0"
     inkscape:deskcolor="#d1d1d1"
     inkscape:document-units="mm"
     inkscape:zoom="0.30994048"
     inkscape:cx="254.88765"
     inkscape:cy="256.50086"
     inkscape:window-width="1360"
     inkscape:window-height="745"
     inkscape:window-x="-8"
     inkscape:window-y="-8"
     inkscape:window-maximized="1"
     inkscape:current-layer="layer1" /><defs
     id="defs1" /><g
     inkscape:label="Capa 1"
     inkscape:groupmode="layer"
     id="layer1"
     transform="translate(-37.26667,-80.376427)"><path
       style="fill:#344854;stroke-width:68.82897725;fill-opacity:1;stroke-dasharray:none"
       d="m 91.612722,432.10148 c -8.257785,-3.15692 -15.791712,-14.7295 -15.791712,-24.25707 0,-2.65896 3.563734,-8.3982 7.91941,-12.75389 l 7.919409,-7.9194 H 202.53258 c 130.25531,0 135.82627,-0.89007 160.59398,-25.65777 15.63832,-15.63832 25.65777,-38.37707 25.65777,-58.22931 0,-19.69486 -10.0261,-42.59764 -25.36101,-57.93255 -24.08919,-24.08919 -33.08364,-25.96211 -124.43594,-25.91146 l -77.66608,0.0431 31.45765,29.26896 c 27.93777,25.99398 31.45765,30.50184 31.45765,40.28727 0,13.70566 -9.54992,23.924 -22.35903,23.924 -7.72919,0 -19.64537,-9.40829 -65.33513,-51.58464 -30.73498,-28.37154 -57.225242,-55.15834 -58.867238,-59.52621 -1.829646,-4.86703 -1.829646,-10.39111 0,-14.26875 C 82.444733,177.47548 191.08521,81.006246 200.30531,78.692148 c 12.36125,-3.102477 25.28063,7.609534 26.51804,21.987252 0.91233,10.6005 -0.99272,13.11586 -30.30221,40.0098 l -31.27575,28.69816 81.92503,1.77331 c 72.4908,1.5691 84.03089,2.552 100.21194,8.53532 54.08802,20.00031 87.17537,66.9354 87.01008,123.42556 -0.16577,56.66477 -33.13933,103.72796 -86.66508,123.69711 -17.61983,6.57356 -24.85359,6.99312 -133.17003,7.72384 -70.25305,0.47396 -117.788411,-0.46983 -122.944608,-2.44102 z"
       id="path1"
       transform="matrix(0.26458333,0,0,0.26458333,37.26667,80.376427)" /></g></svg>
