<?xml version="1.0" encoding="UTF-8" standalone="no"?>
<!-- Generator: Adobe Illustrator 26.0.1, SVG Export Plug-In . SVG Version: 6.00 Build 0)  -->

<svg
   version="1.1"
   id="Capa_1"
   x="0px"
   y="0px"
   viewBox="0 0 24 24"
   style="enable-background:new 0 0 24 24;"
   xml:space="preserve"
   width="512"
   height="512"
   sodipodi:docname="facebook.svg"
   inkscape:version="1.3 (0e150ed6c4, 2023-07-21)"
   xmlns:inkscape="http://www.inkscape.org/namespaces/inkscape"
   xmlns:sodipodi="http://sodipodi.sourceforge.net/DTD/sodipodi-0.dtd"
   xmlns="http://www.w3.org/2000/svg"
   xmlns:svg="http://www.w3.org/2000/svg"><defs
   id="defs1" /><sodipodi:namedview
   id="namedview1"
   pagecolor="#ffffff"
   bordercolor="#000000"
   borderopacity="0.25"
   inkscape:showpageshadow="2"
   inkscape:pageopacity="0.0"
   inkscape:pagecheckerboard="0"
   inkscape:deskcolor="#d1d1d1"
   showgrid="false"
   inkscape:zoom="0.91015625"
   inkscape:cx="256"
   inkscape:cy="255.45064"
   inkscape:window-width="1360"
   inkscape:window-height="745"
   inkscape:window-x="-8"
   inkscape:window-y="-8"
   inkscape:window-maximized="1"
   inkscape:current-layer="Capa_1" />&#10;&#10;&#10;&#10;&#10;&#10;&#10;&#10;&#10;&#10;&#10;&#10;&#10;&#10;&#10;&#10;&#10;<path
   style="fill:#344854;fill-opacity:1;stroke:none;stroke-width:5.1211;stroke-dasharray:none"
   d="M 202.74978,507.51741 C 137.09097,493.37735 79.329473,453.67584 42.227146,397.18455 -11.490122,315.39567 -13.317702,208.01173 37.595772,125.057 77.650572,59.794603 142.62499,16.609004 218.64378,4.7224608 c 17.77015,-2.7785986 58.25743,-2.758117 75.2618,0.038073 28.32551,4.6578342 49.16736,11.2277372 73.74261,23.2456182 44.80523,21.910823 80.62416,54.473445 106.75603,97.050848 24.271,39.5454 36.59781,83.73196 36.68267,131.49236 0.0386,21.72477 -1.01277,33.38366 -4.61645,51.19256 -18.11129,89.50367 -82.84639,163.06175 -168.77127,191.7737 -12.95167,4.32781 -35.80984,10.24901 -39.67342,10.277 -1.08742,0.008 -1.37339,-18.40649 -1.37339,-88.4364 v -88.44635 h 29.05103 c 16.35345,0 29.32223,-0.43879 29.6715,-1.00391 0.48063,-0.77769 11.59507,-70.92997 11.59507,-73.18598 0,-0.2874 -15.85635,-0.52256 -35.23633,-0.52256 h -35.23632 l 0.3522,-30.48927 c 0.32819,-28.40996 0.51236,-30.83562 2.70052,-35.56795 3.37662,-7.30263 9.54774,-13.62603 16.70187,-17.11397 6.05522,-2.95218 6.84675,-3.04779 29.84252,-3.60453 l 23.62232,-0.57191 0.29157,-31.61598 c 0.22803,-24.72634 -0.0114,-31.718 -1.09871,-32.08409 -3.59934,-1.21188 -29.70157,-3.8828 -44.44923,-4.54829 -19.61761,-0.88525 -34.03977,0.633 -47.76854,5.02866 -23.09988,7.3961 -40.62985,22.53591 -50.57635,43.68043 -8.69766,18.48969 -10.76784,33.22205 -10.76784,76.62901 v 30.25789 h -32.42663 -32.42663 l 0.28929,37.08155 0.28929,37.08155 32.13734,0.29126 32.13734,0.29128 v 88.42975 c 0,70.05499 -0.28538,88.41276 -1.37339,88.34793 -0.75537,-0.045 -5.80638,-1.03651 -11.22447,-2.20333 z"
   id="path2"
   transform="scale(0.046875)" /></svg>
