<?xml version="1.0" encoding="UTF-8" standalone="no"?>
<!-- Generator: Adobe Illustrator 26.0.1, SVG Export Plug-In . SVG Version: 6.00 Build 0)  -->

<svg
   version="1.1"
   id="Capa_1"
   x="0px"
   y="0px"
   viewBox="0 0 24 24"
   style="enable-background:new 0 0 24 24;"
   xml:space="preserve"
   width="512"
   height="512"
   sodipodi:docname="instagram.svg"
   inkscape:version="1.3 (0e150ed6c4, 2023-07-21)"
   xmlns:inkscape="http://www.inkscape.org/namespaces/inkscape"
   xmlns:sodipodi="http://sodipodi.sourceforge.net/DTD/sodipodi-0.dtd"
   xmlns="http://www.w3.org/2000/svg"
   xmlns:svg="http://www.w3.org/2000/svg"><defs
   id="defs2" /><sodipodi:namedview
   id="namedview2"
   pagecolor="#ffffff"
   bordercolor="#000000"
   borderopacity="0.25"
   inkscape:showpageshadow="2"
   inkscape:pageopacity="0.0"
   inkscape:pagecheckerboard="0"
   inkscape:deskcolor="#d1d1d1"
   showgrid="false"
   inkscape:zoom="0.91015625"
   inkscape:cx="256"
   inkscape:cy="255.45064"
   inkscape:window-width="1360"
   inkscape:window-height="745"
   inkscape:window-x="-8"
   inkscape:window-y="-8"
   inkscape:window-maximized="1"
   inkscape:current-layer="Capa_1" />&#10;&#10;&#10;&#10;&#10;&#10;&#10;&#10;&#10;&#10;&#10;&#10;&#10;&#10;&#10;&#10;&#10;<path
   style="display:inline;fill:#344854;fill-opacity:1;stroke:none;stroke-width:5.1211;stroke-dasharray:none"
   d="M 233.47639,384.99161 C 178.93628,375.32432 136.39831,332.5801 127.02728,278.02636 114.81525,206.93368 162.74365,139.2629 233.97364,127.02728 313.75973,113.32193 386.74678,174.93838 386.74678,256 c 0,64.05362 -46.45404,118.93723 -109.297,129.13006 -12.27344,1.99069 -32.3174,1.92758 -43.97339,-0.13845 z m 48.87999,-47.62395 c 27.73766,-9.29298 47.14178,-29.42912 56.22105,-58.34202 2.2041,-7.01895 2.56382,-10.39728 2.51026,-23.575 -0.0588,-14.46101 -0.2816,-16.02549 -3.72136,-26.12996 -8.927,-26.22356 -28.45926,-45.67814 -54.99723,-54.77851 -9.78239,-3.35456 -11.40359,-3.58285 -25.81974,-3.63584 -13.17958,-0.0485 -16.56184,0.31326 -23.62232,2.52625 -28.94693,9.07291 -48.74025,28.12175 -58.39471,56.19832 -3.40814,9.91138 -3.58915,11.24121 -3.58915,26.3691 0,15.11916 0.18226,16.4604 3.57525,26.30954 7.82259,22.7074 22.49618,39.7667 43.02611,50.02153 14.89211,7.43871 24.16672,9.40887 41.79844,8.87902 10.66624,-0.32052 14.32416,-0.93128 23.0134,-3.84243 z"
   id="path3"
   transform="scale(0.046875)" /><path
   style="fill:#344854;fill-opacity:1;stroke:none;stroke-width:5.1211;stroke-dasharray:none"
   d="m 379.31513,146.12776 c -7.45265,-3.77054 -10.96356,-7.58342 -14.64387,-15.90338 -2.94537,-6.6585 -2.52557,-17.45603 0.94275,-24.24801 4.89977,-9.595175 16.71943,-16.980662 27.17569,-16.980662 15.64916,0 30.21459,14.565432 30.21459,30.214592 0,6.64103 -3.29661,14.88223 -7.98983,19.97377 -6.24227,6.77206 -11.79592,9.38973 -21.12605,9.95758 -6.95225,0.42313 -8.35204,0.13364 -14.57328,-3.01389 z"
   id="path4"
   transform="scale(0.046875)" /><path
   style="fill:#344854;fill-opacity:1;stroke:none;stroke-width:5.1211;stroke-dasharray:none"
   d="m 177.44206,510.91235 c -34.13922,-0.93419 -45.66928,-1.94439 -62.82741,-5.50464 C 59.030059,493.87417 21.88542,458.51293 8.1088822,404.01556 3.1596575,384.43738 2.30383,373.65235 0.91885179,313.40773 -0.59226028,247.67645 0.94119795,150.51627 3.8160851,129.8385 13.920456,57.162288 57.225207,13.928945 130.07767,3.7851124 c 6.97459,-0.9711288 32.46528,-2.0375139 68.5146,-2.86626061 65.73128,-1.51111207 162.89146,0.0223462 183.56923,2.89723331 70.43966,9.7934169 112.94792,50.3856269 124.89949,119.2696749 2.6776,15.43254 3.70387,37.94427 4.45651,97.75544 0.79669,63.31104 -0.81356,142.20883 -3.2739,160.41202 -8.61299,63.72462 -42.66296,105.3151 -99.3758,121.38298 -13.22334,3.74643 -26.77003,5.88658 -45.27579,7.15282 -21.66439,1.48236 -145.68042,2.23073 -186.14995,1.12333 z m 181.22618,-46.18354 c 37.28858,-2.37866 59.08984,-10.12002 76.79565,-27.26922 15.70462,-15.2109 24.43664,-35.16685 28.43998,-64.99607 2.05545,-15.31522 2.00534,-216.6428 -0.0579,-232.84815 C 460.3372,112.05734 452.55538,92.791195 439.10669,78.36622 420.08774,57.96663 398.12808,49.683626 356.34533,47.149313 329.22177,45.504147 150.23113,46.456112 137.33906,48.314103 96.324894,54.225019 70.471523,71.701755 57.602391,102.21565 c -4.008451,9.50441 -7.508947,22.83105 -9.370121,35.67276 -1.787595,12.33404 -2.678966,192.1438 -1.082957,218.45692 1.927324,31.77543 6.881178,50.6293 17.574855,66.88811 16.808107,25.55526 44.291402,38.77357 86.173892,41.44603 20.25155,1.29221 187.66325,1.33196 207.77018,0.0493 z"
   id="path5"
   transform="scale(0.046875)" /></svg>
