<?xml version="1.0" encoding="UTF-8" standalone="no"?>
<svg
   id="Outline"
   viewBox="0 0 24 24"
   width="512"
   height="512"
   version="1.1"
   sodipodi:docname="menu-burger.svg"
   inkscape:version="1.3 (0e150ed6c4, 2023-07-21)"
   xmlns:inkscape="http://www.inkscape.org/namespaces/inkscape"
   xmlns:sodipodi="http://sodipodi.sourceforge.net/DTD/sodipodi-0.dtd"
   xmlns="http://www.w3.org/2000/svg"
   xmlns:svg="http://www.w3.org/2000/svg">
  <defs
     id="defs3" />
  <sodipodi:namedview
     id="namedview3"
     pagecolor="#ffffff"
     bordercolor="#000000"
     borderopacity="0.25"
     inkscape:showpageshadow="2"
     inkscape:pageopacity="0.0"
     inkscape:pagecheckerboard="0"
     inkscape:deskcolor="#d1d1d1"
     inkscape:zoom="0.91015625"
     inkscape:cx="256"
     inkscape:cy="254.35193"
     inkscape:window-width="1360"
     inkscape:window-height="745"
     inkscape:window-x="-8"
     inkscape:window-y="-8"
     inkscape:window-maximized="1"
     inkscape:current-layer="Outline" />
  <path
     style="fill:#000000;stroke-width:75.6233"
     d="M 97.236052,126.46215 C 37.039682,125.98667 13.120596,125.44741 11.536481,124.53007 5.8007017,121.20855 1.0862853,113.22911 1.1228424,106.90435 1.1822029,96.634332 8.2245022,88.590692 18.392091,87.179592 c 8.268369,-1.147517 466.947449,-1.147517 475.215819,0 13.52382,1.876891 20.91226,15.295388 15.21677,27.635858 -2.66549,5.77532 -6.62389,9.29409 -11.82579,10.5124 -5.25847,1.23157 -286.44305,2.02941 -399.762838,1.1343 z"
     id="path1"
     transform="scale(0.046875)" />
  <path
     style="fill:#000000;stroke-width:75.6233"
     d="m 64.628301,275.8986 c -49.774409,-0.65135 -51.377234,-0.73887 -54.386266,-2.96958 -11.8753779,-8.80368 -11.8749605,-25.0565 8.7e-4,-33.85804 3.038048,-2.25159 4.516422,-2.31667 72.515021,-3.19214 85.906104,-1.10603 408.390424,-0.0596 414.240964,1.34418 7.52976,1.80668 13.85414,10.37833 13.85414,18.77698 0,8.39126 -6.31333,16.95518 -13.85414,18.79288 -4.98016,1.21368 -355.60122,2.11034 -432.370589,1.10572 z"
     id="path2"
     transform="scale(0.046875)" />
  <path
     style="fill:#000000;stroke-width:75.6233"
     d="M 11.385972,422.72961 C 5.3990198,418.72847 1.0987124,411.61228 1.0987124,405.70615 c 0,-8.08982 6.1253086,-16.9686 13.1220916,-19.02078 2.61098,-0.76581 66.626179,-1.34225 192.886496,-1.73689 194.66271,-0.60845 288.65726,0.30827 294.0653,2.86799 6.12619,2.89963 10.76302,13.39854 9.3184,21.09907 -0.89103,4.74955 -4.49642,10.29758 -8.73294,13.43837 -3.02355,2.24154 -4.53329,2.31576 -60.97855,2.99754 -31.83302,0.3845 -140.26698,0.75531 -240.96436,0.82403 l -183.086122,0.12495 z"
     id="path6"
     transform="scale(0.046875)" />
</svg>
