<?xml version="1.0" encoding="UTF-8" standalone="no"?>
<svg
   viewBox="0 0 24 24"
   width="512"
   height="512"
   version="1.1"
   id="svg1"
   sodipodi:docname="shopping-bag.svg"
   inkscape:version="1.3 (0e150ed6c4, 2023-07-21)"
   xmlns:inkscape="http://www.inkscape.org/namespaces/inkscape"
   xmlns:sodipodi="http://sodipodi.sourceforge.net/DTD/sodipodi-0.dtd"
   xmlns="http://www.w3.org/2000/svg"
   xmlns:svg="http://www.w3.org/2000/svg">
  <defs
     id="defs1" />
  <sodipodi:namedview
     id="namedview1"
     pagecolor="#ffffff"
     bordercolor="#000000"
     borderopacity="0.25"
     inkscape:showpageshadow="2"
     inkscape:pageopacity="0.0"
     inkscape:pagecheckerboard="0"
     inkscape:deskcolor="#d1d1d1"
     inkscape:zoom="0.91015625"
     inkscape:cx="256"
     inkscape:cy="254.35193"
     inkscape:window-width="1360"
     inkscape:window-height="745"
     inkscape:window-x="-8"
     inkscape:window-y="-8"
     inkscape:window-maximized="1"
     inkscape:current-layer="svg1" />
  <path
     style="fill:#000000;stroke-width:75.6233"
     d="M 49.051958,509.16094 C 33.022808,505.28068 16.288821,492.10336 8.6204816,477.32284 0.74215872,462.13759 1.3499982,476.25646 0.71225188,293.6309 L 0.13577097,128.54936 H 64.213479 128.29118 l 0.76236,-8.51503 c 2.22339,-24.83343 10.88848,-48.289731 24.89554,-67.391905 6.5972,-8.99695 21.34899,-23.263719 30.43356,-29.432931 37.1401,-25.2213648 85.76514,-28.8829873 126.24556,-9.5067 13.28377,6.358377 21.8272,12.25957 32.50175,22.449871 13.93822,13.305915 21.76499,24.449578 29.01173,41.306562 5.57465,12.967464 8.88494,25.437433 10.35797,39.018833 l 1.30925,12.0713 h 64.0191 64.01908 l -0.56722,165.08154 c -0.49586,144.3104 -0.77975,165.77277 -2.25625,170.57511 -5.24317,17.05338 -17.71467,32.27634 -32.26352,39.38145 -16.09999,7.86262 0.40943,7.32374 -221.26561,7.22229 C 86.877707,510.73258 54.475276,510.47379 49.051958,509.16094 Z M 456.29491,468.47543 c 4.57778,-2.30891 9.29448,-6.73302 11.58001,-10.8617 1.66915,-3.01524 1.85231,-15.39798 2.14921,-145.30472 l 0.32456,-142.00858 h -43.44902 -43.44903 v 21.42489 21.42489 H 362.57511 341.69957 V 191.72532 170.30043 H 256 170.30043 v 21.42489 21.42489 H 149.42489 128.54936 V 191.72532 170.30043 H 85.100333 41.65131 l 0.32456,142.00858 c 0.299811,131.17991 0.466896,142.26844 2.19118,145.41631 2.481674,4.53056 8.983427,10.13429 12.711469,10.95577 1.65072,0.36374 3.49573,0.82626 4.100022,1.02784 0.604292,0.20158 89.006529,0.40555 196.449409,0.45325 177.70954,0.0789 195.66824,-0.0734 198.86696,-1.68675 z M 341.69957,122.68219 c 0,-14.26482 -9.22479,-37.276893 -19.98204,-49.847054 -11.52713,-13.469775 -28.31768,-24.104504 -44.84199,-28.40185 -9.85776,-2.563627 -32.09672,-2.567501 -41.68752,-0.0073 -24.62004,6.572257 -47.9523,26.164598 -57.87265,48.59626 -3.59956,8.139244 -6.99765,22.570484 -7.00724,29.758834 l -0.008,5.76824 H 256 341.69957 Z"
     id="path1"
     transform="scale(0.046875)" />
</svg>
