<?xml version="1.0" encoding="UTF-8" standalone="no"?>
<!-- Created with Inkscape (http://www.inkscape.org/) -->

<svg
   width="135.46666mm"
   height="135.46666mm"
   viewBox="0 0 135.46666 135.46666"
   version="1.1"
   id="svg1"
   xml:space="preserve"
   inkscape:version="1.3 (0e150ed6c4, 2023-07-21)"
   sodipodi:docname="shopping-bag2.svg"
   xmlns:inkscape="http://www.inkscape.org/namespaces/inkscape"
   xmlns:sodipodi="http://sodipodi.sourceforge.net/DTD/sodipodi-0.dtd"
   xmlns="http://www.w3.org/2000/svg"
   xmlns:svg="http://www.w3.org/2000/svg"><sodipodi:namedview
     id="namedview1"
     pagecolor="#ffffff"
     bordercolor="#000000"
     borderopacity="0.25"
     inkscape:showpageshadow="2"
     inkscape:pageopacity="0.0"
     inkscape:pagecheckerboard="0"
     inkscape:deskcolor="#d1d1d1"
     inkscape:document-units="mm"
     inkscape:zoom="0.48907828"
     inkscape:cx="255.58281"
     inkscape:cy="256.60514"
     inkscape:window-width="1360"
     inkscape:window-height="745"
     inkscape:window-x="-8"
     inkscape:window-y="-8"
     inkscape:window-maximized="1"
     inkscape:current-layer="layer1" /><defs
     id="defs1" /><g
     inkscape:label="Capa 1"
     inkscape:groupmode="layer"
     id="layer1"
     transform="translate(-37.217491,-80.76667)"><path
       style="fill:#000000;stroke-width:140.732"
       d="M 19.84805,496.821 C 9.3693504,488.57845 8.7409749,478.07719 17.700328,460.92877 c 3.088931,-5.91229 2.967296,-7.5813 -2.095641,-28.7554 C 4.2293892,384.59986 -0.84071224,318.21638 0.34751124,232.40917 l 0.67481996,-48.73191 6.6774106,-5.96281 6.6774112,-5.9628 h 59.327124 c 45.705943,0 59.496153,-0.58681 60.063353,-2.55583 0.40492,-1.40571 2.76479,-11.29676 5.24414,-21.98012 5.45494,-23.5049 15.52037,-48.56572 28.32404,-70.520904 11.55383,-19.812019 41.95976,-51.471858 55.666,-57.961593 21.46881,-10.1652118 46.39484,-9.9227603 67.26765,0.654302 12.74774,6.459766 37.19658,30.277242 47.88626,46.649664 18.98989,29.085045 33.92972,66.966661 37.91998,96.150281 2.80375,20.50582 2.85178,76.06447 0.0703,81.2618 -1.91601,3.58008 -4.49335,3.95491 -27.19401,3.95491 -16.77844,0 -25.88939,-0.81198 -27.53101,-2.4536 -1.67933,-1.67932 -2.4536,-11.66975 -2.4536,-31.65833 v -29.20471 l -53.67239,-0.54512 -53.67239,-0.54511 -0.64368,-5.58862 -0.64368,-5.58861 53.80491,-0.54537 53.8049,-0.54538 -0.35076,-15.46168 c -0.76853,-33.87595 -12.27114,-80.672778 -25.85151,-105.1734 -4.73944,-8.550562 -9.85423,-14.342499 -16.87946,-19.114192 -8.93272,-6.067302 -11.284,-6.747435 -20.66647,-5.977997 -18.58093,1.523784 -31.44114,15.290517 -43.41319,46.473443 -12.88573,33.562746 -18.58535,74.973746 -18.58535,135.033306 0,33.14162 -0.44384,38.58351 -3.23422,39.65428 -4.20837,1.61491 -46.57374,1.61491 -50.78211,0 -2.74885,-1.05484 -3.23422,-5.81095 -3.23422,-31.69227 V 184.01962 H 76.925201 c -48.641829,0 -58.427148,0.48754 -60.525262,3.01562 -1.917863,2.31088 -2.285829,22.49897 -1.574565,86.38698 1.013669,91.0509 2.979136,113.43914 13.846384,157.72127 l 5.839247,23.79391 -4.987529,10.98155 c -6.021073,13.25722 -6.25067,17.84616 -1.03262,20.63878 2.657405,1.42219 77.683054,2.1166 228.685294,2.1166 222.90781,0 224.76073,-0.0335 228.46983,-4.13202 3.639,-4.02106 3.58202,-4.46135 -2.12134,-16.39417 l -5.86074,-12.2621 4.49415,-18.87629 c 9.47909,-39.81389 14.69493,-86.76993 14.69493,-132.29264 0,-29.62262 1.71631,-35.96688 9.33613,-34.51067 3.44822,0.65899 4.03706,2.84582 4.60196,17.0908 1.48862,37.53732 -5.78083,109.85274 -14.78824,147.1115 l -4.92147,20.35735 4.93046,9.72984 c 6.97195,13.75845 6.47584,20.99731 -2.02137,29.49452 l -6.95185,6.95185 H 256.06302 c -228.476864,0 -231.03227,-0.0446 -236.21497,-4.1213 z M 180.53727,182.48612 c 0.85783,-39.33692 2.01215,-54.97184 5.18391,-70.21459 3.4825,-16.736094 11.62742,-43.46403 17.70141,-58.087975 3.16929,-7.630484 -8.86952,5.134219 -18.31968,19.424293 -17.34412,26.226939 -30.80668,58.909752 -35.73883,86.762512 -1.18161,6.67278 -2.14838,25.76482 -2.14838,42.42674 v 30.29442 h 16.109 16.10901 z m 183.37715,17.37963 C 363.866,154.56204 358.74065,132.15859 340.17515,96.099135 330.32702,76.971253 310.51935,48.857608 309.35399,52.35369 c -0.40594,1.21784 1.14974,6.618381 3.45708,12.001202 12.07551,28.171009 18.16903,66.357948 19.82913,124.265218 l 1.27491,44.47141 h 15.01739 15.01742 z"
       id="path1"
       transform="matrix(0.26458333,0,0,0.26458333,37.217491,80.76667)" /><path
       style="fill:#000000;stroke-width:140.732"
       d="m 498.13651,248.36987 c -0.70595,-1.83966 -1.28353,-16.611 -1.28353,-32.82521 0,-16.21421 -0.23003,-29.66915 -0.51117,-29.89987 -0.28114,-0.23072 -23.05357,-0.92079 -50.6054,-1.53349 l -50.09423,-1.11401 v -5.11166 -5.11165 l 50.62277,-0.54693 c 67.70162,-0.73144 65.37645,-2.44969 64.44679,47.62479 l -0.56846,30.61931 -5.36162,0.62177 c -3.49369,0.40516 -5.80879,-0.54353 -6.64515,-2.72305 z"
       id="path2"
       transform="matrix(0.26458333,0,0,0.26458333,37.217491,80.76667)" /></g></svg>
