<?xml version="1.0" encoding="UTF-8" standalone="no"?>
<!-- Generator: Adobe Illustrator 26.0.1, SVG Export Plug-In . SVG Version: 6.00 Build 0)  -->

<svg
   version="1.1"
   id="Capa_1"
   x="0px"
   y="0px"
   viewBox="0 0 24 24"
   style="enable-background:new 0 0 24 24;"
   xml:space="preserve"
   width="512"
   height="512"
   sodipodi:docname="telegram.svg"
   inkscape:version="1.3 (0e150ed6c4, 2023-07-21)"
   xmlns:inkscape="http://www.inkscape.org/namespaces/inkscape"
   xmlns:sodipodi="http://sodipodi.sourceforge.net/DTD/sodipodi-0.dtd"
   xmlns="http://www.w3.org/2000/svg"
   xmlns:svg="http://www.w3.org/2000/svg"><defs
   id="defs1" /><sodipodi:namedview
   id="namedview1"
   pagecolor="#ffffff"
   bordercolor="#000000"
   borderopacity="0.25"
   inkscape:showpageshadow="2"
   inkscape:pageopacity="0.0"
   inkscape:pagecheckerboard="0"
   inkscape:deskcolor="#d1d1d1"
   inkscape:zoom="1.2871553"
   inkscape:cx="216.75706"
   inkscape:cy="319.69724"
   inkscape:window-width="1360"
   inkscape:window-height="745"
   inkscape:window-x="-8"
   inkscape:window-y="-8"
   inkscape:window-maximized="1"
   inkscape:current-layer="Capa_1" />&#10;&#10;&#10;&#10;&#10;&#10;&#10;&#10;&#10;&#10;&#10;&#10;&#10;&#10;&#10;&#10;&#10;<path
   style="fill:#344854;fill-opacity:1;stroke:none;stroke-width:4.661;stroke-dasharray:none"
   d="M 225.30304,509.62186 C 158.99994,500.35794 101.03784,468.78065 60.359109,419.76173 -34.301401,305.69337 -13.974149,139.09403 105.48056,49.952615 189.33847,-12.625186 309.49303,-15.37768 397.17308,43.270539 493.32288,107.58408 534.412,227.38274 497.89974,336.94722 c -12.9258,38.78722 -31.65176,68.71904 -61.94262,99.0099 -37.52046,37.52046 -78.43515,59.6188 -130.63266,70.55573 -17.76041,3.72133 -63.04627,5.48078 -80.02142,3.10901 z m 111.1282,-129.43407 c 6.54599,-6.54598 8.38774,-13.06083 16.11242,-56.99447 16.11328,-91.64352 24.17242,-150.41026 21.80347,-158.98986 -3.69927,-13.39763 -14.5356,-13.44187 -48.99276,-0.20002 -53.94922,20.73262 -216.27673,90.69045 -224.05703,96.56123 -3.906179,2.94749 -5.02438,4.85539 -4.661442,7.95349 0.668948,5.71022 7.950152,10.11729 25.821092,15.62861 35.31486,10.89096 45.58915,11.92086 58.56235,5.87034 4.27298,-1.99286 32.48935,-20.16567 62.70301,-40.38399 33.56691,-22.46223 55.53299,-39.81543 58.65648,-36.7606 11.08387,10.84025 4.30882,5.78332 -54.38977,61.40757 -15.29711,14.49592 -28.67682,28.41083 -29.73268,30.92199 -2.68358,6.38235 -0.29364,12.22255 7.59713,18.56485 10.83841,8.71147 85.38337,57.97542 90.34765,59.70735 9.09446,3.17284 14.67779,2.26581 20.23008,-3.28649 z"
   id="path2"
   transform="scale(0.046875)"
   sodipodi:nodetypes="sssssssssssssssssssssss" /></svg>
