<?xml version="1.0" encoding="UTF-8" standalone="no"?>
<!-- Created with Inkscape (http://www.inkscape.org/) -->

<svg
   width="135.46666mm"
   height="135.46666mm"
   viewBox="0 0 135.46666 135.46666"
   version="1.1"
   id="svg1"
   xml:space="preserve"
   inkscape:version="1.3 (0e150ed6c4, 2023-07-21)"
   sodipodi:docname="user.svg"
   xmlns:inkscape="http://www.inkscape.org/namespaces/inkscape"
   xmlns:sodipodi="http://sodipodi.sourceforge.net/DTD/sodipodi-0.dtd"
   xmlns="http://www.w3.org/2000/svg"
   xmlns:svg="http://www.w3.org/2000/svg"><sodipodi:namedview
     id="namedview1"
     pagecolor="#ffffff"
     bordercolor="#000000"
     borderopacity="0.25"
     inkscape:showpageshadow="2"
     inkscape:pageopacity="0.0"
     inkscape:pagecheckerboard="0"
     inkscape:deskcolor="#d1d1d1"
     inkscape:document-units="mm"
     inkscape:zoom="0.48907828"
     inkscape:cx="-14.312637"
     inkscape:cy="-50.09423"
     inkscape:window-width="1360"
     inkscape:window-height="745"
     inkscape:window-x="-8"
     inkscape:window-y="-8"
     inkscape:window-maximized="1"
     inkscape:current-layer="layer1" /><defs
     id="defs1" /><g
     inkscape:label="Capa 1"
     inkscape:groupmode="layer"
     id="layer1"
     transform="translate(-37.217491,-80.76667)"><path
       style="fill:#000000;stroke-width:140.732"
       d="m 212.70046,812.29238 c -5.50404,-1.9563 -13.38781,-7.49296 -19.80028,-13.90543 -15.53473,-15.53473 -17.95195,-25.28558 -16.4445,-66.33587 1.57034,-42.76306 7.33134,-65.78015 25.34779,-101.27271 10.13166,-19.95946 17.45496,-30.09113 35.27229,-48.79862 18.71999,-19.65526 30.20003,-25.78251 48.36071,-25.81159 14.50471,-0.0232 21.99691,2.26419 37.56523,11.46889 6.21534,3.67479 18.6614,9.23531 27.65791,12.35672 14.96134,5.19094 18.88748,5.67528 46.00491,5.67528 27.11741,0 31.04357,-0.48434 46.0049,-5.67528 8.99652,-3.12141 21.44258,-8.68193 27.6579,-12.35672 15.56833,-9.2047 23.06052,-11.49212 37.56524,-11.46889 18.89368,0.0303 29.60336,5.99641 50.31368,28.02877 26.50688,28.19892 43.53698,59.85734 53.25548,99.00029 6.00489,24.18564 7.87743,76.13713 3.31056,91.84668 -3.90206,13.42256 -14.36001,26.35388 -27.61466,34.14568 l -9.54048,5.60841 -177.88563,0.37247 c -158.00988,0.33087 -178.90748,0.009 -187.03105,-2.87808 z m 368.31105,-20.77611 c 6.37446,-4.04256 10.77126,-8.92761 13.95531,-15.505 4.405,-9.09952 4.59027,-11.28212 3.5342,-41.63631 -1.32729,-38.15039 -5.63879,-57.87664 -18.65603,-85.35629 -15.08454,-31.84378 -38.8544,-62.39568 -55.10989,-70.83394 -14.27283,-7.40905 -25.56845,-5.95915 -48.32875,6.20344 -29.00127,15.49763 -46.04948,19.69949 -79.74183,19.65388 -35.26095,-0.0477 -56.68161,-5.54631 -84.26193,-21.62962 -14.46255,-8.43376 -24.08438,-10.47648 -35.76725,-7.59343 -18.38671,4.53739 -49.83797,41.8477 -65.24399,77.39829 -12.21002,28.17557 -15.50979,44.29211 -16.62359,81.1919 -0.94477,31.29998 -0.74654,33.63478 3.62183,42.65864 3.15614,6.51971 7.57194,11.41758 13.92794,15.44844 l 9.30662,5.90209 h 175.04037 175.04036 z"
       id="path1"
       transform="scale(0.26458333)" /><path
       style="fill:#000000;stroke-width:140.732"
       d="m 368.38222,559.14675 c -43.86203,-9.52067 -83.67589,-48.26551 -95.52868,-92.96371 -4.53073,-17.0859 -4.63433,-46.06747 -0.22504,-62.95448 14.96132,-57.29994 65.36929,-96.52919 124.03602,-96.52919 70.90836,0 127.47781,56.75903 127.36455,127.7914 -0.0573,35.95782 -11.84996,63.66796 -38.30585,90.01044 -12.21976,12.16742 -20.50087,18.38489 -32.07213,24.07986 -26.54654,13.06528 -56.59793,16.78895 -85.26887,10.56568 z m 55.80027,-18.39731 c 39.41866,-10.26725 71.34695,-43.92256 79.88232,-84.20318 3.71464,-17.53037 3.70034,-26.6215 -0.07,-44.54678 -8.48267,-40.32852 -40.11767,-73.42825 -80.14278,-83.85346 -59.46841,-15.48956 -121.794,23.36195 -134.51774,83.85346 -3.77039,17.92528 -3.78468,27.01641 -0.07,44.54678 8.43604,39.81185 40.25163,73.68025 79.00469,84.10226 14.6226,3.93252 41.02019,3.98016 55.91358,0.10092 z"
       id="path2"
       transform="scale(0.26458333)" /></g></svg>
