<?xml version="1.0" encoding="UTF-8" standalone="no"?>
<!-- Generator: Adobe Illustrator 26.0.1, SVG Export Plug-In . SVG Version: 6.00 Build 0)  -->

<svg
   version="1.1"
   id="Capa_1"
   x="0px"
   y="0px"
   viewBox="0 0 24 24"
   style="enable-background:new 0 0 24 24;"
   xml:space="preserve"
   width="512"
   height="512"
   sodipodi:docname="whatsapp.svg"
   inkscape:version="1.3 (0e150ed6c4, 2023-07-21)"
   xmlns:inkscape="http://www.inkscape.org/namespaces/inkscape"
   xmlns:sodipodi="http://sodipodi.sourceforge.net/DTD/sodipodi-0.dtd"
   xmlns="http://www.w3.org/2000/svg"
   xmlns:svg="http://www.w3.org/2000/svg"><defs
   id="defs1" /><sodipodi:namedview
   id="namedview1"
   pagecolor="#ffffff"
   bordercolor="#000000"
   borderopacity="0.25"
   inkscape:showpageshadow="2"
   inkscape:pageopacity="0.0"
   inkscape:pagecheckerboard="0"
   inkscape:deskcolor="#d1d1d1"
   inkscape:zoom="0.91015625"
   inkscape:cx="256"
   inkscape:cy="255.45064"
   inkscape:window-width="1360"
   inkscape:window-height="745"
   inkscape:window-x="-8"
   inkscape:window-y="-8"
   inkscape:window-maximized="1"
   inkscape:current-layer="Capa_1" />&#10;&#10;&#10;&#10;&#10;&#10;&#10;&#10;&#10;&#10;&#10;&#10;&#10;&#10;&#10;&#10;&#10;<path
   style="display:inline;fill:#344854;stroke-width:23.4388;stroke-dasharray:none;fill-opacity:1"
   d="m 2.1974249,510.43017 c 0,-0.25912 7.9554021,-29.49022 17.6786721,-64.958 L 37.55477,380.98529 30.926593,367.66003 C 12.281879,330.17677 4.1303712,295.33311 4.1616591,253.25322 4.2132153,183.9136 31.307326,120.49127 81.736575,71.664577 132.85785,22.167856 201.16985,-3.2114854 271.67595,1.0981189 335.94657,5.0265878 392.06268,30.450201 436.95996,75.98067 c 14.38008,14.582876 21.70819,23.603641 32.44038,39.93349 19.0211,28.9421 31.38386,60.86709 37.86678,97.78541 2.81105,16.0081 2.78576,64.63565 -0.0417,80.20601 -9.77555,53.83232 -32.08437,98.13416 -68.22312,135.48047 -64.41598,66.56845 -156.73026,92.50921 -246.53701,69.2781 -14.81268,-3.83174 -31.27102,-9.88362 -45.65976,-16.78955 -5.76799,-2.76837 -11.06632,-5.0334 -11.77406,-5.0334 -0.70773,0 -30.54694,7.66352 -66.309356,17.03004 C 3.1575018,511.04325 2.1974249,511.28223 2.1974249,510.43017 Z M 298.59581,460.98936 c 40.72285,-8.61321 74.96621,-26.62826 104.52619,-54.99004 55.2039,-52.96622 77.45955,-131.32052 58.35069,-205.4321 -12.86593,-49.89905 -44.3105,-93.95714 -87.7535,-122.954486 -25.41957,-16.967069 -55.75276,-28.48009 -87.09625,-33.057548 -15.45462,-2.257021 -43.72003,-2.218933 -59.53898,0.08023 -43.36725,6.303099 -83.52558,25.928026 -115.25276,56.322744 -35.990171,34.47867 -57.229131,75.87831 -64.099024,124.94381 -2.681972,19.15492 -1.685938,50.97508 2.168517,69.2774 5.24074,24.88489 15.086301,49.90815 27.370695,69.56475 2.822626,4.51655 5.122999,8.96634 5.111941,9.88841 -0.01106,0.92206 -4.627064,18.48678 -10.257791,39.03271 -6.282725,22.92498 -9.776654,37.46709 -9.044274,37.64322 0.656378,0.15786 18.202072,-4.16832 38.990426,-9.61373 20.78837,-5.4454 38.52283,-9.90074 39.40993,-9.90074 0.8871,0 4.39689,1.67596 7.79955,3.72435 21.60119,13.00387 51.00179,23.59537 74.85617,26.96676 4.53219,0.64054 9.47639,1.37731 10.98712,1.63725 1.51073,0.25996 13.37683,0.30287 26.3691,0.0954 20.28894,-0.32401 25.5245,-0.77957 37.10225,-3.22837 z"
   id="path2"
   transform="scale(0.046875)" /><path
   style="fill:#344854;stroke-width:23.4388;stroke-dasharray:none;fill-opacity:1"
   d="m 312.58369,374.58365 c -14.90565,-1.76499 -52.69057,-16.12091 -70.70336,-26.8629 -38.51093,-22.9661 -85.74169,-74.00938 -103.45253,-111.80334 -7.13631,-15.22848 -9.30658,-24.58797 -9.22817,-39.79724 0.10368,-20.10899 4.7145,-32.06011 18.67218,-48.39774 7.31336,-8.56039 11.80694,-10.38337 25.59452,-10.38337 6.194,0 12.21883,0.51217 13.3885,1.13816 1.16967,0.62599 3.29566,3.46891 4.72443,6.31759 5.13619,10.24062 22.66967,53.72548 22.66967,56.22315 0,4.31511 -4.57628,12.02676 -12.90987,21.75492 -5.63829,6.58181 -7.96567,10.16798 -7.96567,12.27402 0,6.75233 16.67178,29.78907 32.91679,45.48377 13.61012,13.14908 27.36721,22.70774 44.43895,30.87695 13.90777,6.65516 17.81219,7.73213 21.1017,5.82049 2.51667,-1.46253 12.28535,-12.64856 20.60088,-23.58991 8.45701,-11.12752 7.99972,-11.11702 30.58797,-0.70238 26.60218,12.26533 39.19328,18.96372 41.09118,21.86029 2.24686,3.42914 1.51452,12.43376 -2.00933,24.70604 -2.1631,7.53332 -3.0316,8.90407 -10.12224,15.97613 -15.53381,15.4931 -35.54402,21.92965 -59.3956,19.10537 z"
   id="path3"
   transform="scale(0.046875)" /></svg>
