<?xml version="1.0" encoding="UTF-8" standalone="no"?>
<svg
   height="400"
   width="930"
   clip-rule="evenodd"
   fill-rule="evenodd"
   stroke-linejoin="round"
   stroke-miterlimit="1.414"
   viewBox="-150 -105.1565 1007.5 315.46946"
   version="1.1"
   id="svg1"
   sodipodi:docname="kara-logo.svg"
   inkscape:version="1.3 (0e150ed6c4, 2023-07-21)"
   xmlns:inkscape="http://www.inkscape.org/namespaces/inkscape"
   xmlns:sodipodi="http://sodipodi.sourceforge.net/DTD/sodipodi-0.dtd"
   xmlns="http://www.w3.org/2000/svg"
   xmlns:svg="http://www.w3.org/2000/svg">
  <defs
     id="defs1" />
  <sodipodi:namedview
     id="namedview1"
     pagecolor="#ffffff"
     bordercolor="#000000"
     borderopacity="0.25"
     inkscape:showpageshadow="2"
     inkscape:pageopacity="0.0"
     inkscape:pagecheckerboard="0"
     inkscape:deskcolor="#d1d1d1"
     inkscape:zoom="0.6045763"
     inkscape:cx="316.75076"
     inkscape:cy="237.35631"
     inkscape:window-width="1360"
     inkscape:window-height="745"
     inkscape:window-x="-8"
     inkscape:window-y="-8"
     inkscape:window-maximized="1"
     inkscape:current-layer="svg1" />
  <path
     id="path1"
     d="m 208.14746,-158.02008 -30.51107,83.822919 -117.672848,323.307291 -0.723633,0.0846 c -2.010986,0.248 -4.000927,0.44344 -5.968913,0.59244 -1.078602,0.0845 -2.151374,0.0776 -3.226725,0.13542 -0.117974,0.26578 -0.243439,0.53044 -0.281413,0.81462 -0.02198,0.16451 0.09717,-0.31925 0.175619,-0.4655 0.01484,-0.0277 0.02521,0.0596 0.02539,0.091 9.6e-4,0.1636 -0.01546,0.32737 -0.02116,0.49088 -0.0092,0.26203 -0.01729,0.52291 -0.02539,0.78499 -0.005,0.48579 -0.0421,0.96934 -0.06771,1.45362 h 12.44987 c 0.537909,-1.50081 1.157517,-3.02115 1.857748,-4.56397 l -0.907715,0.15446 48.265458,-132.6639 h 135.20931 l 48.71827,134.14079 h -48.06023 v 2.93262 h 188.63542 v -2.93262 H 387.75228 V 47.815372 h 55.69222 c 56.67458,0 89.18034,25.319741 89.18034,69.445478 v 35.89388 c 0,3.95493 0.26794,9.73616 0.56494,14.5721 v 0.17562 l -29.93343,82.23812 h -39.1058 v 2.93261 h 80.94743 v -2.93261 h -38.68473 l 27.26107,-74.88542 c 0.056,0.724 0.0825,1.15951 0.0825,1.15951 l 0.75325,6.74755 0.72363,4.46452 c 4.548,27.61379 15.10884,47.91343 31.3807,60.33236 l 2.34017,1.69906 c 12.36293,8.59493 27.72422,12.9471 45.68408,12.9471 23.78986,0 39.6521,-5.93046 52.74903,-19.88932 l -1.71599,-1.61654 c -12.06693,11.13793 -22.19244,15.6512 -34.88037,15.6512 -21.61786,0 -32.93376,-26.22366 -32.93376,-52.08252 v -50.29036 c 0.11509,-12.47793 -1.83896,-24.88867 -5.78271,-36.72754 l -0.53744,-1.55941 v -0.055 h 98.89649 l 48.72038,134.1429 h -48.06022 v 2.93262 h 163.23844 v -2.93262 l -51.29118,-0.019 -148.15641,-407.90885 -0.10156,-0.27084 h -2.92416 l -30.50895,83.822919 -55.54199,152.604004 -0.13119,-0.120605 C 546.42734,61.300054 519.26775,50.681779 485.06396,46.727807 l -10.43131,-1.076986 10.3488,-1.32666 c 56.40558,-10.13593 94.32194,-45.7591888 94.32194,-88.678874 0,-58.855507 -55.3584,-99.937497 -134.65284,-99.937497 H 279.66439 v 2.97916 h 47.94173 V 162.8074 l -116.43083,-320.55876 -0.10368,-0.26872 z m 179.63444,16.70703 h 42.51025 c 56.78665,0 86.76612,33.75737 86.76612,97.588871 0,67.886505 -17.20919,88.596354 -73.61377,88.596354 h -55.6626 z m -208.58398,71.404789 66.45784,182.992351 h -133.0638 z m 443.67366,0 66.45785,182.992351 h -98.94304 l -0.28987,-0.72363 C 585.7021,101.65659 579.30404,91.890344 571.24609,83.586531 l -2.7845,-2.784505 -0.29623,-0.279297 z M 31.136719,67.215925 c -0.455602,0.618545 -0.931167,1.222784 -1.381673,1.845052 -0.183955,0.483477 -0.343907,0.9761 -0.526856,1.459961 z M -57.810872,250.15961 c -0.655394,0.97624 -1.297423,1.96692 -1.965658,2.93262 h 33.722982 c 0.07661,-0.97786 0.158193,-1.95509 0.239095,-2.93262 z" />
  <path
     d="m 57.687176,-138.18729 v 2.9242 H 110.86443 L -37.272199,43.147065 v 4.341 L 99.469301,239.44907 H 52.260926 v 2.80702 H 201.4828 v -2.80702 h -26.046 L 3.6880509,1.8479426 115.09647,-135.26309 h 63.05346 v -2.9242 z M -43.783699,239.44907 V -135.26309 H 1.7968005 v -2.9242 H -152.85132 v 2.9242 h 45.5805 v 374.71216 h -45.5805 v 2.80702 H 1.7968005 v -2.80702 z"
     id="path8"
     style="font-size:542.625px;line-height:0;font-family:OPTIBodoni-Antiqua;-inkscape-font-specification:OPTIBodoni-Antiqua;stroke-width:140.057"
     transform="scale(0.95718439,1.0447308)"
     aria-label="K"
     sodipodi:nodetypes="ccccccccccccccccccccccccccccc" />
</svg>
