<?xml version="1.0" encoding="UTF-8" standalone="no"?>
<svg
   height="400"
   width="930"
   clip-rule="evenodd"
   fill-rule="evenodd"
   stroke-linejoin="round"
   stroke-miterlimit="1.414"
   viewBox="-150 -105.1565 1007.5 315.46946"
   version="1.1"
   id="svg1"
   sodipodi:docname="Zara_(retailer)-Logo.wine.svg"
   inkscape:version="1.3 (0e150ed6c4, 2023-07-21)"
   xmlns:inkscape="http://www.inkscape.org/namespaces/inkscape"
   xmlns:sodipodi="http://sodipodi.sourceforge.net/DTD/sodipodi-0.dtd"
   xmlns="http://www.w3.org/2000/svg"
   xmlns:svg="http://www.w3.org/2000/svg">
  <defs
     id="defs1" />
  <sodipodi:namedview
     id="namedview1"
     pagecolor="#ffffff"
     bordercolor="#000000"
     borderopacity="0.25"
     inkscape:showpageshadow="2"
     inkscape:pageopacity="0.0"
     inkscape:pagecheckerboard="0"
     inkscape:deskcolor="#d1d1d1"
     inkscape:zoom="0.6045763"
     inkscape:cx="419.30192"
     inkscape:cy="129.843"
     inkscape:window-width="1360"
     inkscape:window-height="745"
     inkscape:window-x="-8"
     inkscape:window-y="-8"
     inkscape:window-maximized="1"
     inkscape:current-layer="svg1" />
  <path
     d="m 803.04134,250.15977 -148.157,-407.91 -0.101,-0.27 h -2.924 l -30.509,83.823964 -55.543,152.603943 -0.13,-0.121 c -19.25,-16.986003 -46.409,-27.604004 -80.613,-31.558004 l -10.432,-1.077 10.349,-1.327 c 56.406,-10.136 94.322,-45.7599976 94.322,-88.679981 0,-58.855922 -55.357,-99.936922 -134.652,-99.936922 h -164.986 v 2.98 h 47.94 v 304.11999 l -116.429,-320.55899 -0.105,-0.269 h -2.924 l -30.51,83.823964 -117.674006,323.306036 -0.724,0.084 c -2.011,0.248 -4,0.445 -5.968,0.594 -2.96,0.232 -5.903,0.371 -8.855,0.371 h -118.9 l 226.013006,-391.472 1.68,-2.942 h -276.423 v 121.099907 h 2.933 c 0.52,-58.985934 34.871994,-118.157907 110.7699937,-118.157907 H 82.054334 l -227.720994,394.405 h 306.784 V 137.06973 h -2.933 c -0.4,51.41204 -29.544,100.24404 -92.920006,111.27004 l -2.015,0.344 48.266006,-132.66507 h 135.208 l 48.72,134.14107 h -48.06 v 2.933 h 188.635 v -2.933 h -48.266 V 47.814673 h 55.692 c 56.675,0 89.18,25.320003 89.18,69.446027 v 35.89305 c 0,3.955 0.269,9.73701 0.566,14.57302 v 0.176 l -29.934,82.238 h -39.105 v 2.933 h 80.947 v -2.933 h -38.685 l 27.26,-74.886 c 0.056,0.724 0.084,1.16 0.084,1.16 l 0.752,6.748 0.724,4.464 c 4.548,27.614 15.11,47.913 31.382,60.332 l 2.339,1.699 c 12.363,8.595 27.725,12.948 45.685,12.948 23.79,0 39.652,-5.931 52.749,-19.89 l -1.717,-1.616 c -12.067,11.138 -22.193,15.65 -34.881,15.65 -21.618,0 -32.932,-26.222 -32.932,-52.081 v -50.29002 a 112.915,112.915 0 0 0 -5.783,-36.72805 l -0.538,-1.559 v -0.056 h 98.896 l 48.72,134.14207 h -48.06 v 2.933 h 163.24 v -2.933 z m -690.45,-137.07508 66.607,-182.991962 66.458,182.991962 z m 275.19,-68.213017 V -141.31323 h 42.51 c 56.787,0 86.767,33.758 86.767,97.589922 0,67.886981 -17.209,88.594981 -73.614,88.594981 z m 202.604,68.213017 -0.288,-0.724 a 90.879,90.879 0 0 0 -18.852,-28.774013 l -2.784,-2.785 -0.297,-0.278 54.707,-150.430949 66.458,182.991962 z"
     fill-rule="nonzero"
     id="path1" />
</svg>
